<?xml version="1.0" encoding="UTF-8" standalone="yes"?>
<svg viewBox="0 0 512 512" version="1.2" baseProfile="tiny-ps" xmlns="http://www.w3.org/2000/svg">
  <title>bimi-svg-tiny-12-ps</title>
  <path d="M512 0v512H0V0h512ZM148 136v149.5l51.5 50.5-4.33-9.67L173 287.5V197l49.48 50.02.73 81.27c2.23 3.9 25.23 27.98 27.15 27.64l26.43-26.63.72-82.28 48.47-49.52 3.01-1.49v90.5c-8.01 14.26-17.69 28.35-25.16 42.84-.6 1.16-2.69 3.53-1.35 4.65l50.48-49.52L353.97 135 254.5 237.02l-.47 91.53-5.03 7.46-4.04-8.48-.5-91.5c-30.92-33.32-64.09-64.69-94.19-98.74-.6-.68.07-1.9-2.29-1.28Z" fill="#fff"/>
  <path d="M148 136c2.36-.63 1.69.6 2.29 1.28 30.1 34.05 63.28 65.42 94.19 98.74l.5 91.5 4.04 8.48 5.03-7.46.47-91.53 99.47-102.02-1.01 149.48-50.48 49.52c-1.34-1.13.75-3.5 1.35-4.65 7.46-14.49 17.15-28.58 25.16-42.84V196l-3.01 1.49-48.47 49.52-.72 82.28-26.43 26.63c-1.92.34-24.93-23.74-27.15-27.64l-.73-81.27-49.48-50.02v90.5l22.17 38.83 4.33 9.67-51.5-50.5v-149.5Z"/>
</svg>